name rise30.9205peak61.366fall85.3838.mot
datacolumns 19
datarows 23
range 7.19330900000000 7.22997200000000
endheader
time	ground_force1_vx	ground_force1_vy	ground_force1_vz	ground_force1_px	ground_force1_py	ground_force1_pz	ground_force2_vx	ground_force2_vy	ground_force2_vz	ground_force2_px	ground_force2_py	ground_force2_pz	ground_torque1_x	ground_torque1_y	ground_torque1_z	ground_torque2_x	ground_torque2_y	ground_torque2_z	
7.19330900000000	-43.27910300000000	872.62195499999996	54.74486400000000	0.13059600000000	0.00000000000000	0.08018600000000	-2.20541200000000	7.06579300000000	1.42749800000000	0.00000000000000	0.00000000000000	0.00000000000000	0.00000000000000	19.71024200000000	0.00000000000000	0.00000000000000	0.46671200000000	0.00000000000000	
7.19497100000000	-43.95217300000000	871.81701799999996	54.74300100000000	0.12961200000000	0.00000000000000	0.08014000000000	-3.21872200000000	10.93462700000000	2.11256600000000	0.00000000000000	0.00000000000000	0.00000000000000	0.00000000000000	19.63132300000000	0.00000000000000	0.00000000000000	0.69184800000000	0.00000000000000	
7.19664500000000	-44.63366900000000	870.85323100000005	54.71639800000000	0.12863500000000	0.00000000000000	0.08008900000000	-4.33914500000000	15.38144800000000	2.87781000000000	0.00000000000000	0.00000000000000	0.00000000000000	0.00000000000000	19.55000500000000	0.00000000000000	0.00000000000000	0.94386400000000	0.00000000000000	
7.19830500000000	-45.32391700000000	869.72874899999999	54.66469500000000	0.12766600000000	0.00000000000000	0.08003500000000	-5.53310300000000	20.32380500000000	3.70257100000000	0.00000000000000	0.00000000000000	0.00000000000000	0.00000000000000	19.46646300000000	0.00000000000000	0.00000000000000	1.21617400000000	0.00000000000000	
7.19997700000000	-46.02320700000000	868.44183299999997	54.58757500000000	0.12670500000000	0.00000000000000	0.07997700000000	-6.76134300000000	25.65602000000000	4.56225600000000	0.36210300000000	0.00000000000000	-0.07424500000000	0.00000000000000	19.38086800000000	0.00000000000000	0.00000000000000	2.65094000000000	0.00000000000000	
7.20164500000000	-46.73178700000000	866.99084400000004	54.48477100000000	0.12575100000000	0.00000000000000	0.07991500000000	-7.98180400000000	31.25781900000000	5.43016100000000	0.36562500000000	0.00000000000000	-0.07457600000000	0.00000000000000	19.29339000000000	0.00000000000000	0.00000000000000	3.17973500000000	0.00000000000000	
7.20330600000000	-47.44986500000000	865.37424599999997	54.35606400000000	0.12480500000000	0.00000000000000	0.07984900000000	-9.15278000000000	37.00441500000000	6.27951700000000	0.36896500000000	0.00000000000000	-0.07488800000000	0.00000000000000	19.20419400000000	0.00000000000000	0.00000000000000	3.70510800000000	0.00000000000000	
7.20497400000000	-48.17759900000000	863.59060299999999	54.20128100000000	0.12386700000000	0.00000000000000	0.07977800000000	-10.23596800000000	42.77663100000000	7.08547600000000	0.37213800000000	0.00000000000000	-0.07518300000000	0.00000000000000	19.11344100000000	0.00000000000000	0.00000000000000	4.21231500000000	0.00000000000000	
7.20664100000000	-48.91509800000000	861.63857900000005	54.02029900000000	0.12293600000000	0.00000000000000	0.07970400000000	-11.19899000000000	48.46973000000000	7.82678000000000	0.37515400000000	0.00000000000000	-0.07546300000000	0.00000000000000	19.02128800000000	0.00000000000000	0.00000000000000	4.68845800000000	0.00000000000000	
7.20831800000000	-49.66241700000000	859.51693699999998	53.81304500000000	0.12201300000000	0.00000000000000	0.07962500000000	-12.01715600000000	54.00002300000000	8.48694900000000	0.37802200000000	0.00000000000000	-0.07573300000000	0.00000000000000	18.92788500000000	0.00000000000000	0.00000000000000	5.12325800000000	0.00000000000000	
7.20997200000000	-50.41955600000000	857.22453499999995	53.57949200000000	0.12109600000000	0.00000000000000	0.07954200000000	-12.67435800000000	59.30882200000000	9.05490900000000	0.38074900000000	0.00000000000000	-0.07599300000000	0.00000000000000	18.83337400000000	0.00000000000000	0.00000000000000	5.50950200000000	0.00000000000000	
7.21163900000000	-51.18645300000000	854.76032899999996	53.31966700000000	0.12018600000000	0.00000000000000	0.07945500000000	-13.16313300000000	64.36372799999999	9.52508400000000	0.38334200000000	0.00000000000000	-0.07624600000000	0.00000000000000	18.73789200000000	0.00000000000000	0.00000000000000	5.84318000000000	0.00000000000000	
7.21330800000000	-51.96298400000000	852.12336600000003	53.03364000000000	0.11928200000000	0.00000000000000	0.07936400000000	-13.48401700000000	69.15755200000000	9.89703100000000	0.38580600000000	0.00000000000000	-0.07649300000000	0.00000000000000	18.64156800000000	0.00000000000000	0.00000000000000	6.12332900000000	0.00000000000000	
7.21497500000000	-52.74895900000000	849.31278699999996	52.72153500000000	0.11838500000000	0.00000000000000	0.07926900000000	-13.64435000000000	73.70533200000000	10.17470300000000	0.38814500000000	0.00000000000000	-0.07673500000000	0.00000000000000	18.54452200000000	0.00000000000000	0.00000000000000	6.35165500000000	0.00000000000000	
7.21664100000000	-53.54411700000000	846.32782599999996	52.38352200000000	0.11749200000000	0.00000000000000	0.07917000000000	-13.65673700000000	78.04004300000000	10.36548900000000	0.39036400000000	0.00000000000000	-0.07697300000000	0.00000000000000	18.44686500000000	0.00000000000000	0.00000000000000	6.53199400000000	0.00000000000000	
7.21830900000000	-54.34813000000000	843.16780400000005	52.01981900000000	0.11660500000000	0.00000000000000	0.07906600000000	-13.53734600000000	82.20756200000000	10.47913200000000	0.39246500000000	0.00000000000000	-0.07720900000000	0.00000000000000	18.34870100000000	0.00000000000000	0.00000000000000	6.66969200000000	0.00000000000000	
7.21997400000000	-55.16059300000000	839.83213300000000	51.63069100000000	0.11572300000000	0.00000000000000	0.07895900000000	-13.30421300000000	86.26145000000000	10.52664500000000	0.39445100000000	0.00000000000000	-0.07744300000000	0.00000000000000	18.25012000000000	0.00000000000000	0.00000000000000	6.77095800000000	0.00000000000000	
7.22164500000000	-55.98102500000000	836.32030999999995	51.21645100000000	0.11484500000000	0.00000000000000	0.07884800000000	-12.97569000000000	90.25799600000001	10.51930800000000	0.39632600000000	0.00000000000000	-0.07767700000000	0.00000000000000	18.15120600000000	0.00000000000000	0.00000000000000	6.84226300000000	0.00000000000000	
7.22330700000000	-56.80886700000000	832.63192300000003	50.77745600000000	0.11397000000000	0.00000000000000	0.07873300000000	-12.56913900000000	94.25187699999999	10.46782100000000	0.39809200000000	0.00000000000000	-0.07790900000000	0.00000000000000	18.05203100000000	0.00000000000000	0.00000000000000	6.88981500000000	0.00000000000000	
7.22497000000000	-57.64348000000000	828.76664000000005	50.31411000000000	0.11309700000000	0.00000000000000	0.07861500000000	-12.09992400000000	98.29266900000000	10.38163900000000	0.39975000000000	0.00000000000000	-0.07814200000000	0.00000000000000	17.95265700000000	0.00000000000000	0.00000000000000	6.91914000000000	0.00000000000000	
7.22664300000000	-58.48414200000000	824.72421699999995	49.82686000000000	0.11222800000000	0.00000000000000	0.07849200000000	-11.58074000000000	102.42232900000000	10.26852400000000	0.40130400000000	0.00000000000000	-0.07837600000000	0.00000000000000	17.85313400000000	0.00000000000000	0.00000000000000	6.93479200000000	0.00000000000000	
7.22830700000000	-59.33005000000000	820.50449400000002	49.31619500000000	0.11136000000000	0.00000000000000	0.07836700000000	-11.02125400000000	106.67366300000000	10.13429500000000	0.40275400000000	0.00000000000000	-0.07861000000000	0.00000000000000	17.75350400000000	0.00000000000000	0.00000000000000	6.94018300000000	0.00000000000000	
7.22997200000000	-60.18031600000000	816.10739400000000	48.78264600000000	0.11049200000000	0.00000000000000	0.07823700000000	-10.42804500000000	111.06973200000000	9.98277600000000	0.40410300000000	0.00000000000000	-0.07884500000000	0.00000000000000	17.65379400000000	0.00000000000000	0.00000000000000	6.93753400000000	0.00000000000000	
